<mxfile host="app.diagrams.net" modified="2023-08-24T00:10:13.292Z" agent="Mozilla/5.0 (Windows NT 10.0; Win64; x64) AppleWebKit/537.36 (KHTML, like Gecko) Chrome/115.0.0.0 Safari/537.36 OPR/101.0.0.0" version="21.6.9" etag="OBHHTPubW7wZe-yTk80w" type="github">
  <diagram name="PÃ¡gina-1" id="vEgNoWmx_skKsjNduJlt">
    <mxGraphModel>
      <root>
        <mxCell id="0" />
        <mxCell id="1" parent="0" />
      </root>
    </mxGraphModel>
  </diagram>
</mxfile>
